<svg width="46" height="48" viewBox="0 0 46 48" fill="none" xmlns="http://www.w3.org/2000/svg">
    <path d="M10.0275 14.5927C10.0449 14.6011 18.5191 18.3291 18.5381 18.3372C19.0391 18.5599 19.5955 18.6674 20.1745 18.5743C21.7058 18.3283 22.7499 16.8719 22.5076 15.3208C22.3233 14.1414 21.448 13.2418 20.3654 12.9958C20.3466 12.9912 11.2844 10.9521 11.2643 10.9472C11.0193 10.8843 10.7574 10.8686 10.4929 10.9112C9.45043 11.078 8.73949 12.0692 8.90578 13.1241C9.01021 13.7998 9.45364 14.3253 10.0275 14.5927Z" fill="#EB2D4B"></path>
    <path d="M20.4285 8.45472C20.108 8.99182 19.9856 9.64638 20.1902 10.2882C20.552 11.4172 21.7497 12.0346 22.8642 11.6678C23.2329 11.5466 23.5443 11.3317 23.7861 11.0588C23.7987 11.0442 29.0923 4.81872 29.106 4.80353C29.7591 4.03532 30.0692 2.99258 29.7406 1.96477C29.261 0.472014 27.6771 -0.345028 26.2028 0.139718C25.5433 0.356727 25.0109 0.794816 24.6818 1.35443C24.5892 1.50878 20.4395 8.43791 20.4285 8.45472Z" fill="#EB2D4B"></path>
    <path d="M35.7068 18.7784C35.104 18.6365 34.4501 18.722 33.9127 19.1188C32.9656 19.8179 32.7583 21.1623 33.4487 22.1217C33.6773 22.4388 33.9754 22.6724 34.3061 22.8199C34.3243 22.8289 41.8099 25.9924 41.8283 26.0005C42.7516 26.3906 43.827 26.3659 44.6882 25.7298C45.9408 24.8048 46.2163 23.0258 45.3027 21.7566C44.8938 21.1894 44.3181 20.8129 43.6902 20.6691C43.5169 20.6281 35.7263 18.7836 35.7068 18.7784Z" fill="#EB2D4B"></path>
    <path d="M30.7515 36.6614C30.6985 36.0364 30.4181 35.4331 29.8799 35.0373C28.9323 34.3391 27.6052 34.5529 26.9159 35.5129C26.6886 35.8305 26.5619 36.1902 26.5244 36.5542C26.5204 36.5749 25.8531 44.7632 25.8518 44.783C25.768 45.7934 26.1225 46.8223 26.9853 47.4568C28.2395 48.3799 29.9948 48.0978 30.9068 46.8272C31.3133 46.2578 31.4898 45.5881 31.4319 44.9384C31.4175 44.7594 30.7528 36.6815 30.7515 36.6614Z" fill="#EB2D4B"></path>
    <path d="M12.405 37.4466C12.9748 37.2038 13.4552 36.7473 13.6619 36.1071C14.0253 34.9778 13.4159 33.7653 12.303 33.3977C11.9343 33.2754 11.5565 33.2634 11.2035 33.3405C11.1837 33.3443 3.28817 35.2209 3.26755 35.2249C2.29393 35.4566 1.43625 36.1136 1.10635 37.1414C0.625969 38.6342 1.43063 40.2387 2.90418 40.7259C3.56397 40.944 4.2492 40.9071 4.84045 40.6507C5.00513 40.5815 12.3863 37.4552 12.405 37.4466Z" fill="#EB2D4B"></path>
    <path d="M6.02435 19.9938C6.42949 20.4688 7.00654 20.7895 7.67196 20.7895C8.84427 20.7886 9.79326 19.8259 9.79326 18.6389C9.79326 18.2464 9.68695 17.8796 9.5046 17.5633C9.49603 17.5454 5.28476 10.5233 5.27379 10.5059C4.75457 9.6395 3.87173 9.01804 2.80573 9.01804C1.25452 9.01939 -0.000535374 10.293 1.71329e-07 11.863C1.71329e-07 12.5667 0.246085 13.2136 0.670772 13.7044C0.786183 13.8408 6.0115 19.9784 6.02435 19.9938Z" fill="#EB2D4B"></path>
    <path d="M26.7392 10.6432C26.7363 10.6635 25.8518 19.9792 25.8499 19.999C25.7956 20.5513 25.8676 21.1204 26.1322 21.6497C26.8361 23.0486 28.5263 23.6063 29.9078 22.894C30.9574 22.3522 31.5326 21.2322 31.4301 20.1122C31.4276 20.0918 30.5461 10.7311 30.5435 10.7102C30.5277 10.4544 30.4623 10.1981 30.3399 9.95582C29.8617 9.00315 28.7114 8.6242 27.7725 9.1084C27.1695 9.41927 26.8131 10.0087 26.7392 10.6432Z" fill="#EB2D4B"></path>
    <path d="M35.605 25.5199C35.5849 25.5245 26.5682 27.559 26.5479 27.5628C26.0131 27.6821 25.5009 27.9266 25.088 28.3462C23.9909 29.4578 23.9923 31.2582 25.0885 32.3679C25.9232 33.2113 27.1517 33.4183 28.1708 32.9726C28.1893 32.9639 36.7024 29.2134 36.7206 29.2047C36.9554 29.1103 37.1763 28.9671 37.3662 28.7748C38.1122 28.018 38.1116 26.794 37.3656 26.0388C36.8877 25.5549 36.2236 25.3946 35.605 25.5199Z" fill="#EB2D4B"></path>
    <path d="M24.3832 38.6657C24.3728 38.648 19.6828 30.5859 19.6731 30.5674C19.3971 30.0886 19.009 29.6703 18.4869 29.401C17.1057 28.6878 15.4158 29.2439 14.711 30.642C14.1755 31.7064 14.3616 32.9542 15.0939 33.799C15.1068 33.8147 21.253 40.8624 21.2666 40.8776C21.4278 41.075 21.6305 41.2432 21.8699 41.3669C22.8098 41.8525 23.9594 41.4743 24.4373 40.5227C24.745 39.9127 24.6917 39.2237 24.3832 38.6657Z" fill="#EB2D4B"></path>
    <path d="M8.57192 31.9165C8.58611 31.9014 14.709 24.8938 14.7213 24.8789C15.0858 24.4647 15.3594 23.9623 15.4505 23.3759C15.6947 21.824 14.652 20.3673 13.1206 20.1199C11.9563 19.9325 10.8413 20.4961 10.2747 21.4637C10.2637 21.4811 5.54368 29.5785 5.53324 29.5962C5.39748 29.8126 5.30215 30.0592 5.26065 30.3288C5.09516 31.3838 5.80476 32.3747 6.84586 32.5426C7.51315 32.6498 8.14375 32.3858 8.57192 31.9165Z" fill="#EB2D4B"></path>
</svg>
